<svg version="1.0" xmlns="http://www.w3.org/2000/svg" width="93.000000pt" height="93.000000pt" viewBox="0 0 93.000000 93.000000" preserveAspectRatio="xMidYMid meet">
	<g transform="translate(0.000000,93.000000) scale(0.100000,-0.100000)" fill="#cccccc" stroke="none">
		<path d="M108 533 c-29 -7 -51 -52 -44 -88 12 -62 87 -85 131 -40 63 62 2 152 -87 128z"/>
		<path d="M405 515 c-49 -48 -23 -120 47 -131 74 -12 117 77 63 131 -15 16 -36 25 -55 25 -19 0 -40 -9 -55 -25z"/>
		<path d="M725 515 c-16 -15 -25 -36 -25 -55 0 -19 9 -40 25 -55 49 -50 135 -15 135 55 0 41 -39 80 -80 80 -19 0 -40 -9 -55 -25z"/>
	</g>
</svg>
