<svg version="1.0" xmlns="http://www.w3.org/2000/svg" width="25.000000pt" height="24.000000pt" viewBox="0 0 25.000000 24.000000" preserveAspectRatio="xMidYMid meet">
	<g transform="translate(0.000000,24.000000) scale(0.100000,-0.100000)" fill="#cccccc" stroke="none">
		<path d="M111 197 l-14 -47 -51 0 -51 0 38 -25 c39 -27 43 -38 27 -81 -14 -36
		-9 -38 30 -9 31 23 36 24 54 10 12 -8 30 -20 40 -26 16 -10 18 -9 12 7 -22 57
		-19 71 20 98 l39 26 -53 0 c-43 0 -52 3 -52 18 -1 9 -7 30 -14 47 l-12 29 -13
		-47z"/>
	</g>
</svg>
