<svg version="1.0" xmlns="http://www.w3.org/2000/svg" width="33.000000pt" height="21.000000pt" viewBox="0 0 33.000000 21.000000" preserveAspectRatio="xMidYMid meet">
	<g transform="translate(0.000000,21.000000) scale(0.100000,-0.100000)" fill="#cccccc" stroke="none">
		<path d="M31 165 c-29 -41 -30 -45 -12 -45 17 0 20 -8 23 -52 l3 -53 88 -3 88
		-3 -17 26 c-14 21 -24 25 -65 25 -48 0 -49 1 -49 30 0 24 4 30 21 30 19 0 18
		3 -12 45 -18 25 -33 45 -34 45 -1 0 -16 -20 -34 -45z"/>
		<path d="M116 175 c14 -21 24 -25 65 -25 48 0 49 -1 49 -29 0 -22 -5 -30 -20
		-33 -18 -3 -17 -6 14 -45 l33 -42 32 44 c29 41 30 45 12 45 -17 0 -20 8 -23
		53 l-3 52 -88 3 -88 3 17 -26z"/>
	</g>
</svg>